<svg xmlns="http://www.w3.org/2000/svg" width="24" height="24"><path fill="#ffb74d" d="M20 5.95v3.42c-.79-.24-1.63-.37-2.5-.37C12.81 9 9 12.81 9 17.5c0 .87.13 1.71.37 2.5H.89C.4 20 0 19.6 0 19.11V5.95z"/><path fill="#ffa726" d="M20 5.946H0L2.995.551A1.08 1.08 0 0 1 3.935 0h12.13c.389 0 .757.216.941.551z"/><path fill="#795548" d="m10.811 0 1.081 5.946H8.108L9.189 0z"/><circle cx="17.5" cy="17.5" r="6.5" fill="#2196f3"/><g fill="#fff"><path d="M17.5 21a.75.75 0 0 1-.75-.75v-5.5a.75.75 0 0 1 1.5 0v5.5a.75.75 0 0 1-.75.75z"/><path d="M20.25 18.25h-5.5a.75.75 0 0 1 0-1.5h5.5a.75.75 0 0 1 0 1.5z"/></g></svg>