<svg xmlns="http://www.w3.org/2000/svg" xml:space="preserve" width="32" height="32" viewBox="0 0 24 24"><path fill="#ECEFF1" d="M14.25 20.25H2.75a2 2 0 0 1-2-2V2.75a2 2 0 0 1 2-2h11.5a2 2 0 0 1 2 2v15.5a2 2 0 0 1-2 2z"/><path fill="#FFC107" d="m22.96 13.88-1.24-1.24c-.39-.39-.85-.21-1.24.18l-7.42 7.42-.53 3.01 3-.53 7.43-7.42c.39-.4.39-1.03 0-1.42z"/><path d="M12.527 24a.748.748 0 0 1-.738-.88l.53-3.005a.752.752 0 0 1 .208-.4l7.425-7.425c.316-.316.651-.514.996-.585.476-.101.939.045 1.302.408l1.237 1.237a1.753 1.753 0 0 1 0 2.475l-7.424 7.425a.753.753 0 0 1-.4.208l-3.005.53a.726.726 0 0 1-.131.012zm3.006-1.28h.01-.01zm-1.778-2.112-.303 1.717 1.717-.303 7.257-7.258a.252.252 0 0 0 0-.354l-1.228-1.228c-.01.019-.085.066-.186.167l-7.257 7.259zM10.01 21H2.75A2.752 2.752 0 0 1 0 18.25V2.75A2.752 2.752 0 0 1 2.75 0h11.5A2.752 2.752 0 0 1 17 2.75v10.06a.75.75 0 0 1-1.5 0V2.75c0-.689-.561-1.25-1.25-1.25H2.75c-.689 0-1.25.561-1.25 1.25v15.5c0 .689.561 1.25 1.25 1.25h7.26a.75.75 0 0 1 0 1.5z"/><path d="M13.25 9.5h-9.5a.75.75 0 0 1 0-1.5h9.5a.75.75 0 0 1 0 1.5zM9.25 13.5h-5.5a.75.75 0 0 1 0-1.5h5.5a.75.75 0 0 1 0 1.5zM8.25 5.5h-4.5a.75.75 0 0 1 0-1.5h4.5a.75.75 0 0 1 0 1.5z"/></svg>